<?xml version="1.0" encoding="UTF-8"?>
<svg width="800" height="1000" xmlns="http://www.w3.org/2000/svg">
  <defs>
    <style>
      .box { fill: #e6f2ff; stroke: #003366; stroke-width: 2; }
      .decision { fill: #ffe6e6; stroke: #cc0000; stroke-width: 2; }
      .process { fill: #f0f8ff; stroke: #004080; stroke-width: 2; }
      .output { fill: #e6ffe6; stroke: #006600; stroke-width: 2; }
      .text { font-family: Arial, sans-serif; font-size: 14px; text-anchor: middle; }
      .title { font-size: 20px; font-weight: bold; fill: #003366; }
      .arrow { fill: none; stroke: #333333; stroke-width: 2; marker-end: url(#arrowhead); }
      .label { font-size: 12px; fill: #666666; }
    </style>
    <marker id="arrowhead" markerWidth="10" markerHeight="10" refX="9" refY="3" orient="auto">
      <polygon points="0 0, 10 3, 0 6" fill="#333333" />
    </marker>
  </defs>
  
  <!-- Title -->
  <text x="400" y="30" class="text title">AXI4 Scoreboard Report Phase Flowchart</text>
  
  <!-- Start -->
  <rect x="300" y="60" width="200" height="40" rx="20" class="box"/>
  <text x="400" y="85" class="text">report_phase() Start</text>
  
  <!-- Check if scoreboard enabled -->
  <polygon points="400,140 500,180 400,220 300,180" class="decision"/>
  <text x="400" y="185" class="text">Scoreboard</text>
  <text x="400" y="200" class="text">Enabled?</text>
  
  <!-- Arrow from start to decision -->
  <line x1="400" y1="100" x2="400" y2="140" class="arrow"/>
  
  <!-- No path -->
  <text x="250" y="175" class="label">No</text>
  <line x1="300" y1="180" x2="150" y2="180" class="arrow"/>
  <rect x="50" y="160" width="100" height="40" rx="5" class="output"/>
  <text x="100" y="185" class="text">Exit</text>
  
  <!-- Yes path -->
  <text x="420" y="240" class="label">Yes</text>
  <line x1="400" y1="220" x2="400" y2="260" class="arrow"/>
  
  <!-- Collect statistics -->
  <rect x="250" y="260" width="300" height="60" rx="5" class="process"/>
  <text x="400" y="285" class="text">Collect Transaction Statistics</text>
  <text x="400" y="305" class="text">(Total, Pass, Fail, Pending)</text>
  
  <line x1="400" y1="320" x2="400" y2="360" class="arrow"/>
  
  <!-- Check for mismatches -->
  <polygon points="400,360 500,400 400,440 300,400" class="decision"/>
  <text x="400" y="395" class="text">Any Response</text>
  <text x="400" y="410" class="text">Mismatches?</text>
  
  <!-- Yes - Report errors -->
  <text x="520" y="395" class="label">Yes</text>
  <line x1="500" y1="400" x2="600" y2="400" class="arrow"/>
  
  <rect x="600" y="370" width="180" height="60" rx="5" class="process"/>
  <text x="690" y="395" class="text">Report Error Details</text>
  <text x="690" y="415" class="text">(Address, Expected, Actual)</text>
  
  <line x1="690" y1="430" x2="690" y2="480" class="arrow"/>
  <line x1="690" y1="480" x2="400" y2="480" class="arrow"/>
  
  <!-- No - Continue -->
  <text x="420" y="460" class="label">No</text>
  <line x1="400" y1="440" x2="400" y2="480" class="arrow"/>
  
  <!-- Check for pending transactions -->
  <polygon points="400,500 500,540 400,580 300,540" class="decision"/>
  <text x="400" y="535" class="text">Pending</text>
  <text x="400" y="550" class="text">Transactions?</text>
  
  <!-- Yes - Report pending -->
  <text x="520" y="535" class="label">Yes</text>
  <line x1="500" y1="540" x2="600" y2="540" class="arrow"/>
  
  <rect x="600" y="510" width="180" height="60" rx="5" class="process"/>
  <text x="690" y="535" class="text">Report Pending</text>
  <text x="690" y="555" class="text">Transaction IDs</text>
  
  <line x1="690" y1="570" x2="690" y2="620" class="arrow"/>
  <line x1="690" y1="620" x2="400" y2="620" class="arrow"/>
  
  <!-- No - Continue -->
  <text x="420" y="600" class="label">No</text>
  <line x1="400" y1="580" x2="400" y2="620" class="arrow"/>
  
  <!-- Generate summary report -->
  <rect x="250" y="640" width="300" height="80" rx="5" class="process"/>
  <text x="400" y="665" class="text">Generate Summary Report</text>
  <text x="400" y="685" class="text">- Total Transactions: X</text>
  <text x="400" y="705" class="text">- Pass/Fail/Pending Counts</text>
  
  <line x1="400" y1="720" x2="400" y2="760" class="arrow"/>
  
  <!-- Determine test status -->
  <polygon points="400,760 500,800 400,840 300,800" class="decision"/>
  <text x="400" y="795" class="text">All Tests</text>
  <text x="400" y="810" class="text">Passed?</text>
  
  <!-- Pass -->
  <text x="250" y="795" class="label">Yes</text>
  <line x1="300" y1="800" x2="200" y2="800" class="arrow"/>
  <rect x="50" y="770" width="150" height="60" rx="5" class="output"/>
  <text x="125" y="795" class="text">UVM_INFO:</text>
  <text x="125" y="815" class="text">"TEST PASSED"</text>
  
  <!-- Fail -->
  <text x="520" y="795" class="label">No</text>
  <line x1="500" y1="800" x2="600" y2="800" class="arrow"/>
  <rect x="600" y="770" width="150" height="60" rx="5" class="output"/>
  <text x="675" y="795" class="text">UVM_ERROR:</text>
  <text x="675" y="815" class="text">"TEST FAILED"</text>
  
  <!-- End -->
  <line x1="125" y1="830" x2="125" y2="900" class="arrow"/>
  <line x1="675" y1="830" x2="675" y2="900" class="arrow"/>
  <line x1="125" y1="900" x2="400" y2="900" class="arrow"/>
  <line x1="675" y1="900" x2="400" y2="900" class="arrow"/>
  
  <rect x="300" y="920" width="200" height="40" rx="20" class="box"/>
  <text x="400" y="945" class="text">report_phase() End</text>
</svg>
